<svg width="570" height="511" viewBox="0 0 570 511" fill="none" xmlns="http://www.w3.org/2000/svg">
<rect width="570" height="511" rx="20" fill="white"/>
<path d="M482 138C506.301 138 526 118.301 526 94C526 69.6995 506.301 50 482 50C457.699 50 438 69.6995 438 94C438 118.301 457.699 138 482 138Z" fill="#F0F0F0"/>
<g clip-path="url(#clip0_8044_3)">
<path d="M509 193.095H506.71V130.328C506.71 120.693 502.879 111.453 496.061 104.64C489.242 97.8274 479.994 94 470.351 94H337.253C332.478 93.9999 327.75 94.9395 323.339 96.7651C318.928 98.5906 314.92 101.266 311.543 104.64C308.167 108.013 305.489 112.018 303.661 116.425C301.834 120.833 300.894 125.556 300.894 130.327V474.672C300.894 484.307 304.724 493.547 311.543 500.36C318.361 507.173 327.609 511 337.252 511H470.349C479.992 511 489.24 507.173 496.059 500.36C502.877 493.547 506.708 484.307 506.708 474.672V237.773H508.998L509 193.095Z" fill="#3F3D56"/>
<path d="M499.295 127.894V477.104C499.293 484.409 496.389 491.415 491.22 496.581C486.05 501.747 479.04 504.65 471.728 504.653H335.9C328.586 504.654 321.571 501.752 316.398 496.586C311.225 491.42 308.318 484.412 308.315 477.104V127.894C308.318 120.587 311.225 113.58 316.398 108.413C321.57 103.247 328.585 100.346 335.899 100.347H352.375C351.566 102.335 351.258 104.491 351.479 106.625C351.699 108.76 352.441 110.808 353.638 112.589C354.836 114.37 356.454 115.83 358.349 116.84C360.243 117.85 362.358 118.38 364.505 118.383H441.944C444.091 118.38 446.206 117.85 448.1 116.84C449.995 115.83 451.613 114.37 452.811 112.589C454.008 110.808 454.75 108.76 454.97 106.625C455.191 104.491 454.883 102.335 454.074 100.347H471.723C479.034 100.348 486.046 103.25 491.216 108.415C496.386 113.58 499.292 120.584 499.295 127.889V127.894Z" fill="white"/>
<path d="M405.262 267.6C389.797 267.606 374.964 261.474 364.024 250.553C353.084 239.631 346.934 224.816 346.927 209.364V209.313C346.927 209.191 346.927 209.062 346.934 208.94C347.11 177.022 373.28 151.029 405.262 151.029C420.733 151.029 435.571 157.168 446.512 168.098C457.452 179.028 463.599 193.853 463.6 209.311C463.601 224.769 457.455 239.594 446.516 250.525C435.577 261.456 420.74 267.597 405.268 267.598H405.262V267.6ZM405.262 152.256C390.185 152.289 375.731 158.266 365.039 168.887C354.348 179.509 348.283 193.916 348.163 208.979C348.156 209.11 348.156 209.214 348.156 209.313C348.155 220.6 351.503 231.633 357.778 241.018C364.052 250.403 372.971 257.718 383.407 262.038C393.843 266.359 405.326 267.49 416.406 265.29C427.485 263.089 437.662 257.656 445.651 249.676C453.639 241.696 459.08 231.529 461.285 220.46C463.49 209.391 462.361 197.917 458.039 187.489C453.718 177.061 446.398 168.148 437.007 161.877C427.615 155.605 416.573 152.257 405.277 152.256H405.262V152.256Z" fill="#E6E6E6"/>
<path d="M465.584 328.879H344.884C344.292 328.879 343.723 328.643 343.304 328.225C342.885 327.806 342.65 327.238 342.649 326.646V296.732C342.65 296.14 342.886 295.573 343.305 295.154C343.724 294.735 344.292 294.5 344.884 294.499H465.584C466.176 294.5 466.744 294.735 467.163 295.154C467.582 295.573 467.818 296.14 467.819 296.732V326.647C467.818 327.239 467.582 327.806 467.163 328.225C466.744 328.644 466.176 328.879 465.584 328.88V328.879ZM344.884 295.392C344.529 295.392 344.188 295.534 343.936 295.785C343.685 296.036 343.543 296.377 343.543 296.732V326.647C343.543 327.002 343.685 327.343 343.936 327.594C344.188 327.845 344.529 327.987 344.884 327.987H465.584C465.939 327.987 466.28 327.845 466.532 327.594C466.783 327.343 466.925 327.002 466.925 326.647V296.732C466.925 296.377 466.783 296.036 466.532 295.785C466.28 295.534 465.939 295.392 465.584 295.392H344.884Z" fill="#E6E6E6"/>
<path d="M382.211 305.436C381.796 305.436 381.398 305.601 381.105 305.894C380.812 306.187 380.647 306.585 380.647 307C380.647 307.414 380.812 307.812 381.105 308.105C381.398 308.398 381.796 308.563 382.211 308.563H455.972C456.177 308.571 456.382 308.538 456.575 308.467C456.767 308.396 456.944 308.287 457.095 308.148C457.246 308.008 457.368 307.84 457.453 307.654C457.539 307.467 457.588 307.266 457.595 307.06C457.603 306.855 457.571 306.65 457.499 306.458C457.428 306.265 457.319 306.089 457.18 305.938C457.04 305.787 456.872 305.666 456.685 305.58C456.499 305.494 456.297 305.446 456.092 305.438C456.069 305.437 456.046 305.437 456.023 305.437H382.211V305.436Z" fill="#E6E6E6"/>
<path d="M382.211 314.816C381.796 314.816 381.398 314.98 381.105 315.274C380.812 315.567 380.647 315.965 380.647 316.379C380.647 316.794 380.812 317.191 381.105 317.485C381.398 317.778 381.796 317.943 382.211 317.943H455.972C456.177 317.95 456.382 317.918 456.575 317.846C456.767 317.775 456.944 317.667 457.095 317.527C457.246 317.388 457.368 317.22 457.453 317.033C457.539 316.847 457.588 316.645 457.595 316.44C457.603 316.235 457.571 316.03 457.499 315.837C457.428 315.645 457.319 315.468 457.18 315.317C457.04 315.167 456.872 315.045 456.685 314.959C456.499 314.874 456.297 314.825 456.092 314.817C456.069 314.817 456.046 314.816 456.023 314.816H382.211V314.816Z" fill="#E6E6E6"/>
<path d="M465.584 378.904H344.884C344.292 378.904 343.723 378.668 343.304 378.25C342.885 377.831 342.65 377.263 342.649 376.671V346.757C342.65 346.165 342.886 345.597 343.305 345.179C343.724 344.76 344.292 344.525 344.884 344.524H465.584C466.176 344.525 466.744 344.76 467.163 345.179C467.582 345.597 467.818 346.165 467.819 346.757V376.672C467.818 377.264 467.582 377.831 467.163 378.25C466.744 378.668 466.176 378.903 465.584 378.904V378.904ZM344.884 345.417C344.529 345.417 344.188 345.559 343.936 345.81C343.685 346.061 343.543 346.402 343.543 346.757V376.672C343.543 377.027 343.685 377.368 343.936 377.619C344.188 377.87 344.529 378.012 344.884 378.012H465.584C465.939 378.012 466.28 377.87 466.532 377.619C466.783 377.368 466.925 377.027 466.925 376.672V346.757C466.925 346.402 466.783 346.061 466.532 345.81C466.28 345.559 465.939 345.417 465.584 345.417H344.884Z" fill="#E6E6E6"/>
<path d="M382.211 355.459C381.796 355.459 381.398 355.624 381.105 355.917C380.812 356.21 380.647 356.608 380.647 357.022C380.647 357.437 380.812 357.835 381.105 358.128C381.398 358.421 381.796 358.586 382.211 358.586H455.972C456.381 358.583 456.773 358.421 457.063 358.134C457.354 357.846 457.521 357.456 457.528 357.048C457.534 356.639 457.38 356.244 457.099 355.947C456.818 355.65 456.432 355.475 456.023 355.46H382.211V355.459Z" fill="#E6E6E6"/>
<path d="M382.211 364.841C381.796 364.841 381.398 365.006 381.105 365.299C380.812 365.592 380.647 365.99 380.647 366.404C380.647 366.819 380.812 367.217 381.105 367.51C381.398 367.803 381.796 367.968 382.211 367.968H455.972C456.381 367.965 456.773 367.803 457.063 367.516C457.354 367.228 457.521 366.838 457.528 366.43C457.534 366.021 457.38 365.626 457.099 365.329C456.818 365.032 456.432 364.857 456.023 364.842H382.211V364.841Z" fill="#E6E6E6"/>
<path d="M465.584 428.928H344.884C344.292 428.928 343.723 428.692 343.304 428.273C342.885 427.855 342.65 427.287 342.649 426.695V396.781C342.65 396.189 342.886 395.621 343.305 395.203C343.724 394.784 344.292 394.549 344.884 394.548H465.584C466.176 394.549 466.744 394.784 467.163 395.203C467.582 395.621 467.818 396.189 467.819 396.781V426.696C467.818 427.288 467.582 427.855 467.163 428.274C466.744 428.693 466.176 428.928 465.584 428.929V428.928ZM344.884 395.441C344.529 395.441 344.188 395.582 343.936 395.834C343.685 396.085 343.543 396.426 343.543 396.781V426.696C343.543 427.051 343.685 427.392 343.936 427.643C344.188 427.894 344.529 428.035 344.884 428.036H465.584C465.939 428.035 466.28 427.894 466.532 427.643C466.783 427.392 466.925 427.051 466.925 426.696V396.781C466.925 396.426 466.783 396.085 466.532 395.834C466.28 395.582 465.939 395.441 465.584 395.441H344.884Z" fill="#E6E6E6"/>
<path d="M382.211 405.485C381.796 405.485 381.398 405.649 381.105 405.943C380.812 406.236 380.647 406.633 380.647 407.048C380.647 407.463 380.812 407.86 381.105 408.153C381.398 408.447 381.796 408.611 382.211 408.611H455.972C456.177 408.619 456.382 408.587 456.575 408.515C456.767 408.444 456.944 408.336 457.095 408.196C457.246 408.056 457.368 407.889 457.453 407.702C457.539 407.516 457.588 407.314 457.595 407.109C457.603 406.904 457.571 406.699 457.499 406.506C457.428 406.314 457.319 406.137 457.18 405.986C457.04 405.836 456.872 405.714 456.685 405.628C456.499 405.542 456.297 405.494 456.092 405.486C456.069 405.485 456.046 405.485 456.023 405.485H382.211V405.485Z" fill="#E6E6E6"/>
<path d="M382.211 414.865C381.796 414.865 381.398 415.029 381.105 415.323C380.812 415.616 380.647 416.013 380.647 416.428C380.647 416.843 380.812 417.24 381.105 417.534C381.398 417.827 381.796 417.991 382.211 417.991H455.972C456.177 417.999 456.382 417.967 456.575 417.895C456.767 417.824 456.944 417.716 457.095 417.576C457.246 417.437 457.368 417.269 457.453 417.082C457.539 416.896 457.588 416.694 457.595 416.489C457.603 416.284 457.571 416.079 457.499 415.886C457.428 415.694 457.319 415.517 457.18 415.366C457.04 415.216 456.872 415.094 456.685 415.008C456.499 414.922 456.297 414.874 456.092 414.866C456.069 414.866 456.046 414.865 456.023 414.865H382.211V414.865Z" fill="#E6E6E6"/>
<path d="M423.695 207.899H406.682V190.9H403.847V207.899H386.834V210.731H403.847V227.73H406.682V210.731H423.695V207.899Z" fill="#77B2D3"/>
<path d="M162.442 421.653C162.442 421.653 148.531 436.875 146.544 471.952C144.557 507.029 143.894 511 143.894 511H193.575L202.844 487.177L213.445 510.998H260.475C260.475 510.998 265.774 438.197 260.475 436.211C255.176 434.226 162.442 421.653 162.442 421.653Z" fill="#2F2E41"/>
<path d="M229.011 242.628C242.181 242.628 252.857 231.961 252.857 218.802C252.857 205.644 242.181 194.977 229.011 194.977C215.841 194.977 205.165 205.644 205.165 218.802C205.165 231.961 215.841 242.628 229.011 242.628Z" fill="#FFB8B8"/>
<path d="M332.015 422.318L295.583 356.134L274.384 321.719L299.557 310.467L313.467 337.602C313.467 337.602 332.015 364.737 336.651 387.24C341.287 409.743 345.925 420.332 345.925 420.332L332.015 422.318Z" fill="#FFB8B8"/>
<path d="M131.304 403.122L185.621 355.47L182.974 317.084H167.739L163.1 336.939L119.382 394.518L131.304 403.122Z" fill="#FFB8B8"/>
<path d="M201.521 254.211C201.521 254.211 221.194 262.452 235.865 252.375C235.865 252.375 271.735 258.184 273.722 260.168C275.71 262.152 271.735 321.716 271.735 321.716L263.787 355.471C263.787 355.471 275.048 407.094 258.488 420.331L261.8 438.2C261.8 438.2 188.274 443.495 159.128 425.625L164.426 407.755L178.337 351.499L169.726 273.405C169.726 273.405 176.347 255.535 201.521 254.211Z" fill="#E4E4E4"/>
<path d="M256.832 263.145L274.054 260.5C274.054 260.5 282.666 261.824 290.614 278.37C298.563 294.916 307.175 316.756 307.175 316.756L277.367 329.992L252.858 291.606L256.832 263.145Z" fill="#E4E4E4"/>
<path d="M173.701 270.095L169.727 273.404C169.727 273.404 164.428 292.597 164.428 305.834V323.703L188.274 326.35L173.701 270.095Z" fill="#E4E4E4"/>
<path d="M205.171 225.268C205.171 225.268 201.93 221.771 202.258 217.393C202.474 214.902 202.315 212.393 201.785 209.95C201.785 209.95 202.8 202.784 204.298 198.63C205.796 194.476 204.533 193.031 210.973 190.763C217.412 188.495 213.313 180.295 232.298 186.832C233.02 187.561 233.942 188.059 234.947 188.265C235.952 188.47 236.996 188.373 237.946 187.987C241.452 186.704 243.564 191.515 243.564 191.515C243.564 191.515 245.75 189.723 246.977 191.586C248.204 193.45 254.137 189.203 256.314 202.758C258.491 216.314 251.021 228.402 251.021 228.402C251.021 228.402 249.973 206.711 237.643 206.317C225.313 205.923 211.37 201.258 209.64 210.392C207.911 219.526 205.171 225.268 205.171 225.268Z" fill="#2F2E41"/>
<path d="M122.616 413.259C128.291 413.259 132.892 408.662 132.892 402.991C132.892 397.32 128.291 392.723 122.616 392.723C116.94 392.723 112.339 397.32 112.339 402.991C112.339 408.662 116.94 413.259 122.616 413.259Z" fill="#FFB8B8"/>
<path d="M48.5295 472.341L217.781 438.585L203.637 367.789L34.3853 401.543L48.5295 472.341Z" fill="white"/>
<path d="M219.167 439.509L47.6058 473.728L33 400.621L204.561 366.404L219.167 439.509ZM49.4544 470.958L216.397 437.663L202.713 369.172L35.7706 402.468L49.4544 470.958Z" fill="#E4E4E4"/>
<path d="M103.715 449.838L103.645 449.867C103.093 450.094 102.534 450.309 101.959 450.497C101.766 450.563 101.566 450.624 101.372 450.682C101.178 450.741 100.977 450.803 100.776 450.857C100.449 450.951 100.115 451.034 99.7781 451.112C99.6341 451.149 99.4824 451.181 99.3371 451.212L99.2498 451.23C99.0695 451.269 98.8892 451.307 98.7076 451.339L98.2382 451.421C98.1509 451.44 98.0646 451.452 97.9796 451.464C94.2471 452.049 90.4304 451.781 86.8165 450.68C83.2026 449.579 79.8856 447.674 77.115 445.108C74.3443 442.541 72.192 439.381 70.82 435.863C69.4481 432.346 68.8921 428.564 69.1939 424.801C69.4957 421.038 70.6475 417.393 72.5626 414.139C74.4777 410.885 77.1063 408.107 80.2507 406.014C83.3951 403.922 86.9735 402.568 90.7167 402.056C94.4599 401.545 98.2706 401.887 101.862 403.059C98.6117 405.993 96.1901 409.729 94.8401 413.892C93.4901 418.056 93.2591 422.501 94.1703 426.782C95.0816 431.062 97.103 435.029 100.032 438.283C102.961 441.537 106.695 443.965 110.859 445.324C108.753 447.225 106.337 448.753 103.716 449.84L103.715 449.838Z" fill="#77B2D3"/>
<path d="M139.444 437.139C140.536 437.686 141.668 438.15 142.83 438.528C139.577 441.473 135.602 443.505 131.308 444.417L130.994 444.484C127.246 445.235 123.375 445.118 119.679 444.14C115.983 443.163 112.561 441.351 109.676 438.844C106.791 436.338 104.52 433.204 103.038 429.683C101.556 426.162 100.902 422.348 101.126 418.535C101.351 414.722 102.448 411.011 104.333 407.688C106.219 404.365 108.842 401.518 112.001 399.367C115.16 397.216 118.771 395.817 122.556 395.279C126.341 394.742 130.199 395.078 133.833 396.264C130.803 398.985 128.486 402.405 127.085 406.227C125.683 410.049 125.24 414.155 125.793 418.188C126.347 422.22 127.88 426.056 130.26 429.359C132.639 432.663 135.792 435.334 139.444 437.139L139.444 437.139Z" fill="#77B2D3"/>
<path d="M182.518 408.009C183.547 412.839 183.118 417.866 181.287 422.453C179.456 427.04 176.305 430.982 172.231 433.78C168.158 436.578 163.346 438.106 158.404 438.171C153.461 438.236 148.61 436.836 144.465 434.146C140.319 431.457 137.064 427.6 135.113 423.063C133.161 418.525 132.6 413.512 133.5 408.656C134.4 403.8 136.721 399.319 140.17 395.781C143.619 392.243 148.04 389.807 152.875 388.779C156.085 388.097 159.398 388.053 162.625 388.651C165.852 389.248 168.93 390.474 171.683 392.26C174.435 394.045 176.809 396.355 178.668 399.057C180.527 401.76 181.836 404.801 182.518 408.009Z" fill="#77B2D3"/>
<path d="M172.053 430.291C172.289 431.396 172.413 432.522 172.422 433.653C169.67 435.577 166.558 436.929 163.273 437.627C159.987 438.325 156.594 438.355 153.297 437.717C152.844 436.68 152.499 435.601 152.264 434.496C151.041 428.75 152.937 423.272 156.623 420.794C154.869 420.459 153.284 419.529 152.139 418.16C150.993 416.791 150.357 415.068 150.338 413.283C150.32 411.499 150.919 409.763 152.036 408.37C153.153 406.978 154.717 406.014 156.464 405.643C158.211 405.271 160.033 405.516 161.62 406.334C163.207 407.152 164.462 408.494 165.172 410.131C165.881 411.769 166.002 413.601 165.513 415.318C165.024 417.034 163.956 418.528 162.49 419.547C166.868 420.312 170.83 424.545 172.053 430.291Z" fill="white"/>
<path d="M139.444 437.141L139.46 437.216C139.67 438.604 139.765 440.007 139.745 441.411C137.156 443.225 134.262 443.749 130.995 444.486L130.68 444.553C127.395 445.255 124.002 445.285 120.704 444.642C120.66 444.547 120.621 444.45 120.588 444.351C120.189 443.406 119.883 442.425 119.672 441.421C118.449 435.676 120.345 430.198 124.031 427.719C122.277 427.385 120.692 426.455 119.547 425.086C118.401 423.717 117.765 421.994 117.746 420.21C117.727 418.425 118.327 416.689 119.444 415.297C120.561 413.904 122.125 412.941 123.872 412.57C124.464 412.442 125.07 412.387 125.675 412.406C125.191 417.437 126.249 422.497 128.708 426.914C131.167 431.332 134.911 434.898 139.445 437.142L139.444 437.141Z" fill="white"/>
<path d="M108.091 444.234C108.29 445.229 108.393 446.241 108.4 447.256C106.422 448.643 104.253 449.734 101.96 450.497C101.767 450.562 101.567 450.623 101.373 450.681C101.179 450.74 100.978 450.802 100.777 450.856C100.45 450.951 100.116 451.034 99.7791 451.111C99.7102 451.132 99.635 451.148 99.5649 451.163L99.2508 451.229C99.0704 451.268 98.8901 451.306 98.7085 451.339L98.2391 451.42C98.1518 451.439 98.0656 451.451 97.9805 451.463C95.0929 451.929 92.1456 451.881 89.275 451.32C89.2674 451.308 89.2625 451.294 89.2606 451.28C89.2206 451.199 89.1865 451.114 89.1583 451.028C88.76 450.083 88.4534 449.102 88.243 448.098C87.02 442.353 88.9155 436.875 92.6021 434.397C90.8476 434.063 89.2629 433.132 88.1171 431.763C86.9714 430.394 86.3351 428.671 86.3163 426.887C86.2976 425.103 86.8976 423.367 88.0144 421.974C89.1311 420.582 90.6959 419.618 92.443 419.247C92.8622 419.157 93.2883 419.103 93.7166 419.086C93.1957 424.251 94.3006 429.45 96.8773 433.957C99.4541 438.465 103.374 442.057 108.092 444.233L108.091 444.234Z" fill="white"/>
<path d="M365.588 316.176C365.589 316.742 365.532 317.305 365.419 317.859C363.872 318.515 362.21 318.852 360.53 318.852C358.85 318.852 357.188 318.515 355.641 317.859C355.528 317.305 355.471 316.742 355.471 316.176C355.471 313.239 356.968 310.757 359.03 309.927C358.207 309.581 357.529 308.961 357.111 308.173C356.693 307.384 356.561 306.475 356.738 305.6C356.914 304.726 357.389 303.939 358.08 303.374C358.771 302.809 359.636 302.5 360.53 302.5C361.423 302.5 362.288 302.809 362.98 303.374C363.671 303.939 364.145 304.726 364.321 305.6C364.498 306.475 364.366 307.384 363.948 308.173C363.531 308.961 362.852 309.581 362.029 309.927C364.092 310.757 365.588 313.239 365.588 316.176Z" fill="#77B2D3"/>
<path d="M365.588 367.215C365.589 367.78 365.532 368.344 365.419 368.898C363.872 369.553 362.21 369.891 360.53 369.891C358.85 369.891 357.188 369.553 355.641 368.898C355.528 368.344 355.471 367.78 355.471 367.215C355.471 364.278 356.968 361.795 359.03 360.966C358.207 360.62 357.529 360 357.111 359.211C356.693 358.422 356.561 357.513 356.738 356.639C356.914 355.764 357.389 354.977 358.08 354.412C358.771 353.847 359.636 353.538 360.53 353.538C361.423 353.538 362.288 353.847 362.98 354.412C363.671 354.977 364.145 355.764 364.321 356.639C364.498 357.513 364.366 358.422 363.948 359.211C363.531 360 362.852 360.62 362.029 360.966C364.092 361.795 365.588 364.278 365.588 367.215Z" fill="#77B2D3"/>
<path d="M365.588 417.238C365.589 417.803 365.532 418.367 365.419 418.921C363.872 419.576 362.21 419.914 360.53 419.914C358.85 419.914 357.188 419.576 355.641 418.921C355.528 418.367 355.471 417.803 355.471 417.238C355.471 414.301 356.968 411.818 359.03 410.989C358.207 410.643 357.529 410.023 357.111 409.234C356.693 408.446 356.561 407.537 356.738 406.662C356.914 405.787 357.389 405 358.08 404.435C358.771 403.87 359.636 403.561 360.53 403.561C361.423 403.561 362.288 403.87 362.98 404.435C363.671 405 364.145 405.787 364.321 406.662C364.498 407.537 364.366 408.446 363.948 409.234C363.531 410.023 362.852 410.643 362.029 410.989C364.092 411.818 365.588 414.301 365.588 417.238Z" fill="#77B2D3"/>
<path d="M339.601 434.381C344.79 434.381 348.997 430.178 348.997 424.993C348.997 419.809 344.79 415.606 339.601 415.606C334.412 415.606 330.205 419.809 330.205 424.993C330.205 430.178 334.412 434.381 339.601 434.381Z" fill="#FFB8B8"/>
</g>
<path d="M138.182 140.65C156.359 140.65 171.095 125.914 171.095 107.737C171.095 89.5595 156.359 74.824 138.182 74.824C120.005 74.824 105.269 89.5595 105.269 107.737C105.269 125.914 120.005 140.65 138.182 140.65Z" fill="#F0F0F0"/>
<path d="M46.5 184C55.6127 184 63 176.613 63 167.5C63 158.387 55.6127 151 46.5 151C37.3873 151 30 158.387 30 167.5C30 176.613 37.3873 184 46.5 184Z" fill="#F0F0F0"/>
<path d="M124.068 101.361L109.374 86.8533C108.658 86.1415 107.81 85.5779 106.876 85.1947C105.942 84.8115 104.943 84.6164 103.933 84.6204H103.882C102.865 84.6234 101.859 84.8279 100.922 85.2223C99.9846 85.6166 99.135 86.193 98.4221 86.9179C95.1364 90.243 93.2677 94.7125 93.2087 99.3868C93.1497 104.061 94.9051 108.576 98.1059 111.983C98.2607 112.151 98.4221 112.312 98.5834 112.474C99.4771 113.362 100.464 114.152 101.526 114.829C104.431 116.706 107.819 117.699 111.277 117.688H111.387C113.761 117.68 116.11 117.201 118.298 116.28C120.485 115.358 122.469 114.012 124.133 112.319C125.575 110.856 126.378 108.881 126.366 106.826C126.354 104.772 125.527 102.807 124.068 101.361V101.361ZM123.216 111.409C120.488 114.157 116.896 115.881 113.045 116.29C109.194 116.699 105.32 115.769 102.075 113.655C101.147 113.04 100.28 112.338 99.4869 111.557C96.3206 108.43 94.5262 104.173 94.4984 99.7233C94.4706 95.2732 96.2116 90.9943 99.3385 87.8278C99.9329 87.2221 100.642 86.7407 101.424 86.4117C102.206 86.0826 103.046 85.9124 103.895 85.9111H103.933C104.774 85.9082 105.606 86.0708 106.383 86.3897C107.161 86.7086 107.868 87.1776 108.464 87.7697L123.158 102.284C124.375 103.487 125.064 105.123 125.075 106.834C125.086 108.545 124.417 110.19 123.216 111.409V111.409Z" fill="#3F3D56"/>
<path d="M75.8544 53.7468L61.1598 39.2329C59.7134 37.7979 57.757 36.9949 55.7195 37H55.6744C54.6563 37.0041 53.649 37.2098 52.7109 37.6052C51.7727 38.0007 50.9221 38.578 50.2082 39.3039C47.492 42.0625 45.7307 45.6187 45.1826 49.4512C44.6344 53.2836 45.3282 57.1909 47.1622 60.6004L47.1687 60.6068C47.9253 62.0014 48.865 63.2885 49.963 64.4338C50.0856 64.5757 50.2276 64.7177 50.3696 64.8597C53.7441 68.2093 58.3089 70.0844 63.0636 70.0741H63.1798C65.554 70.0642 67.9028 69.584 70.0904 68.6613C72.2781 67.7387 74.2612 66.3918 75.9254 64.6984C76.6399 63.9747 77.2049 63.1173 77.588 62.1752C77.9711 61.2331 78.1649 60.2248 78.1583 59.2079C78.1517 58.1909 77.9448 57.1852 77.5495 56.2482C77.1542 55.3112 76.5782 54.4612 75.8544 53.7468V53.7468ZM75.0026 63.7949C73.4579 65.3663 71.6172 66.6162 69.5869 67.4724C67.5566 68.3286 65.3768 68.7742 63.1733 68.7835H63.0636C59.7545 68.7822 56.5196 67.8025 53.7658 65.9675C51.012 64.1326 48.8623 61.5243 47.5869 58.4708C46.3116 55.4173 45.9676 52.0549 46.5982 48.8064C47.2288 45.5579 48.8059 42.5684 51.1311 40.2139C52.3342 38.9975 53.9708 38.3082 55.6817 38.2973C57.3925 38.2864 59.0378 38.9548 60.2563 40.1558L74.9509 54.6632C76.1666 55.8684 76.8547 57.5066 76.8644 59.2184C76.8741 60.9302 76.2045 62.576 75.0025 63.7949L75.0026 63.7949Z" fill="#3F3D56"/>
<path d="M125.008 105.922L108.807 89.9212C107.745 88.8744 106.311 88.2916 104.819 88.3009C103.328 88.3101 101.901 88.9106 100.852 89.9706C99.5392 91.2966 98.5009 92.8683 97.7961 94.5959C97.0914 96.3235 96.7341 98.1731 96.7446 100.039C96.7552 101.905 97.1333 103.75 97.8575 105.469C98.5818 107.189 99.6378 108.749 100.965 110.06C102.293 111.371 103.866 112.408 105.594 113.111C107.322 113.813 109.172 114.169 111.038 114.156C112.904 114.143 114.749 113.763 116.467 113.037C118.186 112.311 119.745 111.253 121.055 109.924L125.008 105.922Z" fill="#77B2D3"/>
<path d="M76.7967 58.3053L60.5963 42.3048C59.534 41.2579 58.0998 40.6752 56.6084 40.6844C55.1169 40.6937 53.6901 41.2942 52.6408 42.3542C51.3283 43.6802 50.2899 45.2519 49.5852 46.9795C48.8805 48.7071 48.5231 50.5566 48.5337 52.4224C48.5442 54.2881 48.9224 56.1335 49.6466 57.853C50.3708 59.5725 51.4269 61.1324 52.7544 62.4435C54.0818 63.7546 55.6547 64.7912 57.3831 65.494C59.1114 66.1969 60.9614 66.5521 62.8271 66.5395C64.6929 66.5269 66.5379 66.1467 68.2566 65.4205C69.9753 64.6944 71.534 63.6366 72.8436 62.3077L76.7967 58.3053Z" fill="#77B2D3"/>
<path d="M107.206 115.888L106.818 116.907C104.998 116.217 103.234 115.524 101.526 114.829C71.2725 102.484 56.8296 88.0343 47.1688 60.6069L47.1623 60.6005C46.7041 59.3098 46.2588 57.989 45.8264 56.6381L46.8461 56.309C47.187 57.6082 47.6855 58.8608 48.3304 60.0391C48.8596 61.5427 49.4038 63.0077 49.9631 64.4339C59.0432 87.5826 72.4342 100.812 98.1061 111.983C99.3968 112.545 100.72 113.102 102.075 113.655C103.649 114.68 105.383 115.435 107.206 115.888V115.888Z" fill="#3F3D56"/>
<path d="M60.8904 68.8994L59.9832 69.818L93.5013 102.923L94.4085 102.004L60.8904 68.8994Z" fill="#3F3D56"/>
<defs>
<clipPath id="clip0_8044_3">
<rect width="476" height="417" fill="white" transform="translate(33 94)"/>
</clipPath>
</defs>
</svg>
